M48
INCH
T01C0.0197
T02C0.0354
%
T01
X+010937Y+012937
X+012937Y+010937
X+007937Y+011937
T02
X+011937Y+008937
X+015937Y+008937
X+016937Y+008937
X+016937Y+009937
X+017937Y+009937
X+018937Y+009937
X+018937Y+008937
X+019937Y+008937
X+020937Y+008937
X+020937Y+009937
X+019937Y+009937
X+019937Y+007937
X+020937Y+007937
X+019937Y+014937
X+018937Y+014937
X+017937Y+014937
X+012937Y+014937
X+011937Y+014937
X+010937Y+014937
X+009937Y+014937
X+006937Y+008937
X+005937Y+008937
X+005937Y+007937
X+006937Y+007937
X+004937Y+007937
X+006937Y+004937
X+007937Y+004937
X+008937Y+004937
X+009937Y+004937
X+010937Y+004937
X+011937Y+004937
X+012937Y+004937
T00
M30
